<svg width="2360" height="345" viewBox="0 0 2360 345" fill="none" xmlns="http://www.w3.org/2000/svg">
<rect x="1752" y="8" width="608" height="324" rx="10" fill="#181818"/>
<path d="M1839.38 271.112V248.072C1839.38 243.805 1841.43 241.672 1845.53 241.672H1867.54C1871.81 241.672 1873.94 243.805 1873.94 248.072V271.112C1873.94 275.037 1871.81 277 1867.54 277H1845.53C1843.65 277 1842.11 276.488 1840.92 275.464C1839.9 274.269 1839.38 272.819 1839.38 271.112ZM1895.88 171.272V141.064H2005.71V171.272L1947.34 246.536H2005.71V276.744H1899.72V246.792L1960.65 171.272H1895.88ZM2019.18 188.168V176.392C2019.18 151.987 2030.96 139.784 2054.51 139.784C2094.96 139.784 2119.19 142.088 2127.21 146.696V169.224H2065.52C2063.3 169.224 2061.42 169.395 2059.88 169.736C2058.52 170.077 2057.49 170.675 2056.81 171.528C2056.13 172.381 2055.62 173.32 2055.28 174.344C2055.11 175.368 2055.02 176.819 2055.02 178.696V184.84C2055.02 188.765 2055.87 191.24 2057.58 192.264C2059.29 193.117 2061.93 193.544 2065.52 193.544H2097.77C2104.09 193.544 2109.55 194.483 2114.16 196.36C2118.93 198.067 2122.69 200.541 2125.42 203.784C2128.32 207.027 2130.45 210.781 2131.82 215.048C2133.19 219.144 2133.87 223.667 2133.87 228.616V242.696C2133.87 263.176 2125.25 274.867 2108.01 277.768C2105.62 278.109 2103.15 278.28 2100.59 278.28C2057.58 278.28 2032.32 275.805 2024.81 270.856V248.584H2089.07C2095.04 248.584 2098.03 245.683 2098.03 239.88V233.48C2098.03 231.432 2097.77 229.811 2097.26 228.616C2096.92 227.421 2096.07 226.483 2094.7 225.8C2093.33 225.117 2091.46 224.776 2089.07 224.776H2057.32C2044.87 224.776 2035.39 221.875 2028.91 216.072C2022.42 210.269 2019.18 200.968 2019.18 188.168ZM2153.02 277V76.552H2188.6V155.656C2191.16 153.779 2192.79 152.584 2193.47 152.072C2194.32 151.56 2195.94 150.451 2198.33 148.744C2200.89 147.037 2202.77 145.928 2203.96 145.416C2205.16 144.904 2207.04 144.136 2209.6 143.112C2212.16 141.917 2214.37 141.149 2216.25 140.808C2218.3 140.296 2220.69 139.869 2223.42 139.528C2226.15 139.016 2228.97 138.76 2231.87 138.76C2259 138.76 2272.57 154.632 2272.57 186.376V277H2236.73V185.864C2236.73 179.379 2235.37 174.685 2232.64 171.784C2230.08 168.883 2226.41 167.432 2221.63 167.432C2216.85 167.432 2212.58 167.944 2208.83 168.968C2205.24 169.821 2201.92 171.101 2198.84 172.808C2195.94 174.344 2192.61 176.477 2188.86 179.208V277H2153.02Z" fill="white"/>
<path d="M1031.36 344.12V139.064H1044.93L1049.79 154.168C1054.06 151.096 1061.57 147.597 1072.32 143.672C1083.07 139.576 1092.37 137.528 1100.22 137.528C1109.1 137.528 1116.61 139.576 1122.75 143.672C1128.9 147.768 1133.5 153.4 1136.58 160.568C1139.65 167.565 1141.78 174.819 1142.98 182.328C1144.34 189.667 1145.02 197.688 1145.02 206.392C1145.02 216.291 1144.43 224.995 1143.23 232.504C1142.21 239.843 1140.16 247.181 1137.09 254.52C1134.19 261.688 1129.58 267.235 1123.26 271.16C1117.12 275.085 1109.44 277.048 1100.22 277.048C1093.91 277.048 1085.8 276.109 1075.9 274.232C1066.18 272.355 1057.47 269.88 1049.79 266.808V344.12H1031.36ZM1049.79 251.448C1066.86 255.885 1083.67 258.104 1100.22 258.104C1109.1 258.104 1115.58 254.435 1119.68 247.096C1123.95 239.757 1126.08 226.189 1126.08 206.392C1126.08 173.112 1117.46 156.472 1100.22 156.472C1085.89 156.472 1069.08 160.397 1049.79 168.248V251.448ZM1173.11 226.616V74.552H1192.05V226.616C1192.05 237.027 1193.25 244.28 1195.64 248.376C1198.03 252.301 1201.7 254.861 1206.65 256.056C1220.64 259.64 1228.24 261.432 1229.43 261.432V275H1206.9C1184.37 275 1173.11 258.872 1173.11 226.616ZM1247.3 233.784V139.064H1266.24V233.784C1266.24 241.805 1268.38 247.949 1272.64 252.216C1276.91 256.312 1282.46 258.36 1289.28 258.36C1295.77 258.36 1301.91 257.677 1307.72 256.312C1313.52 254.947 1318.13 253.581 1321.54 252.216C1325.12 250.68 1331.1 247.864 1339.46 243.768V139.064H1358.4V275H1345.09L1339.46 259.128C1338.95 259.299 1337.07 260.408 1333.83 262.456C1330.59 264.333 1328.54 265.443 1327.68 265.784C1327 266.125 1325.21 267.149 1322.31 268.856C1319.41 270.392 1317.36 271.331 1316.16 271.672C1314.97 272.013 1313.01 272.696 1310.28 273.72C1307.55 274.744 1305.24 275.427 1303.36 275.768C1301.66 276.109 1299.52 276.451 1296.96 276.792C1294.4 277.133 1291.84 277.304 1289.28 277.304C1276.31 277.304 1266.07 273.037 1258.56 264.504C1251.05 255.971 1247.3 245.731 1247.3 233.784ZM1386.04 245.56C1386.04 240.781 1387.32 236.344 1389.88 232.248C1392.44 227.981 1396.19 225.336 1401.14 224.312C1391.24 217.997 1386.29 205.539 1386.29 186.936C1386.29 171.064 1390.13 159.032 1397.81 150.84C1405.66 142.648 1416.59 138.552 1430.58 138.552H1510.45V152.888L1489.72 157.496C1489.89 157.837 1490.49 158.947 1491.51 160.824C1492.53 162.531 1493.3 163.981 1493.81 165.176C1494.33 166.2 1494.92 167.821 1495.61 170.04C1496.29 172.088 1496.8 174.563 1497.14 177.464C1497.48 180.195 1497.65 183.352 1497.65 186.936C1497.65 191.715 1497.06 196.579 1495.86 201.528C1494.84 206.477 1492.96 211.853 1490.23 217.656C1487.5 223.288 1483.15 227.896 1477.17 231.48C1471.2 235.064 1463.95 236.856 1455.41 236.856H1415.48C1408.48 236.856 1404.98 239.416 1404.98 244.536C1404.98 250.339 1408.48 253.24 1415.48 253.24H1470.01C1480.42 253.24 1488.52 256.483 1494.33 262.968C1500.13 269.283 1503.03 277.816 1503.03 288.568V304.696C1503.03 309.304 1502.52 313.571 1501.49 317.496C1500.64 321.421 1498.93 325.517 1496.37 329.784C1493.98 334.221 1490.06 337.72 1484.6 340.28C1479.14 342.84 1472.48 344.12 1464.63 344.12H1426.23C1413.77 344.12 1403.79 340.792 1396.28 334.136C1388.94 327.48 1385.27 317.667 1385.27 304.696V282.936L1395.51 266.296C1389.2 261.859 1386.04 254.947 1386.04 245.56ZM1404.21 304.696C1404.21 318.349 1411.55 325.176 1426.23 325.176H1464.63C1477.6 325.176 1484.09 318.349 1484.09 304.696V289.848C1484.09 283.363 1482.89 278.755 1480.5 276.024C1478.28 273.464 1473.68 272.184 1466.68 272.184H1415.73C1413.34 272.184 1411.21 272.013 1409.33 271.672C1407.46 271.331 1406.18 270.989 1405.49 270.648L1404.21 270.136V304.696ZM1405.24 186.936C1405.24 190.52 1405.58 193.933 1406.26 197.176C1406.94 200.419 1408.05 203.747 1409.59 207.16C1411.13 210.403 1413.52 213.048 1416.76 215.096C1420.17 216.973 1424.18 217.912 1428.79 217.912H1453.88C1458.49 217.912 1462.5 216.973 1465.91 215.096C1469.32 213.219 1471.88 210.744 1473.59 207.672C1475.47 204.6 1476.75 201.528 1477.43 198.456C1478.28 195.213 1478.71 191.971 1478.71 188.728C1478.71 188.045 1478.71 187.448 1478.71 186.936C1478.2 177.037 1476.24 169.699 1472.82 164.92C1469.41 159.971 1463.01 157.496 1453.62 157.496H1430.58C1413.69 157.496 1405.24 167.309 1405.24 186.936ZM1528.3 117.048V103.224C1528.3 98.9573 1530.35 96.824 1534.44 96.824H1547.24C1551.17 96.824 1553.13 98.9573 1553.13 103.224V117.048C1553.13 120.973 1551.17 122.936 1547.24 122.936H1534.44C1530.35 122.936 1528.3 120.973 1528.3 117.048ZM1530.86 275V139.064H1549.8V275H1530.86ZM1581.36 275V139.064H1594.67L1600.3 154.936C1600.82 154.765 1602.69 153.741 1605.94 151.864C1609.18 149.816 1611.14 148.621 1611.82 148.28C1612.68 147.939 1614.55 147 1617.46 145.464C1620.36 143.757 1622.41 142.733 1623.6 142.392C1624.79 142.051 1626.76 141.368 1629.49 140.344C1632.22 139.32 1634.44 138.637 1636.14 138.296C1638.02 137.955 1640.24 137.613 1642.8 137.272C1645.36 136.931 1647.92 136.76 1650.48 136.76C1663.45 136.76 1673.69 141.027 1681.2 149.56C1688.71 158.093 1692.46 168.333 1692.46 180.28V275H1673.52V180.28C1673.52 172.259 1671.39 166.2 1667.12 162.104C1662.85 157.837 1657.31 155.704 1650.48 155.704C1643.99 155.704 1637.85 156.387 1632.05 157.752C1626.25 159.117 1621.55 160.568 1617.97 162.104C1614.55 163.469 1608.67 166.2 1600.3 170.296V275H1581.36Z" fill="#181818"/>
<rect y="8" width="979" height="324" rx="10" fill="#181818"/>
<path d="M63.52 227.616V75.552H99.36V221.984C99.36 231.029 100.299 237.344 102.176 240.928C104.053 244.512 107.04 247.072 111.136 248.608C121.376 252.192 127.093 253.984 128.288 253.984V276H98.592C92.96 276 88.0107 275.147 83.744 273.44C79.4773 271.733 75.808 269.088 72.736 265.504C69.664 261.749 67.36 256.715 65.824 250.4C64.288 244.085 63.52 236.491 63.52 227.616ZM139.93 241.44V228.64C139.93 223.349 140.613 218.571 141.978 214.304C143.514 210.037 145.818 206.112 148.89 202.528C151.962 198.944 156.058 196.213 161.178 194.336C166.469 192.288 172.698 191.264 179.866 191.264C186.522 191.264 193.093 191.349 199.578 191.52C206.234 191.52 212.975 191.435 219.802 191.264C219.973 185.632 219.973 182.731 219.802 182.56C219.802 178.976 219.375 176.075 218.522 173.856C217.839 171.637 216.645 169.931 214.938 168.736C213.231 167.541 211.354 166.773 209.306 166.432C207.258 166.091 204.698 165.92 201.626 165.92C190.533 165.92 171.503 166.859 144.538 168.736V146.72C159.727 140.747 180.378 137.675 206.49 137.504C222.191 137.504 234.309 140.832 242.842 147.488C251.375 153.973 255.642 165.237 255.642 181.28V276H227.226L219.802 261.152C219.119 262.347 216.901 264.224 213.146 266.784C209.562 269.173 204.442 271.648 197.786 274.208C191.13 276.597 184.645 277.707 178.33 277.536C166.042 277.195 156.57 273.525 149.914 266.528C143.258 259.36 139.93 250.997 139.93 241.44ZM175.77 236.32C175.77 241.44 176.879 244.853 179.098 246.56C181.317 248.096 184.474 248.864 188.57 248.864C190.618 248.864 192.751 248.693 194.97 248.352C197.189 247.84 199.237 247.328 201.114 246.816C203.162 246.133 205.125 245.451 207.002 244.768C208.879 243.915 210.586 243.147 212.122 242.464C213.658 241.611 214.938 240.928 215.962 240.416C217.157 239.733 218.095 239.221 218.778 238.88C219.461 238.368 219.802 238.112 219.802 238.112V213.28L186.778 215.84C184.559 216.011 182.682 216.608 181.146 217.632C179.61 218.485 178.415 219.595 177.562 220.96C176.879 222.325 176.367 223.691 176.026 225.056C175.855 226.421 175.77 227.957 175.77 229.664V236.32ZM276.52 276V140.064H306.728L312.36 157.216C325.16 144.928 338.131 138.784 351.272 138.784C358.611 138.784 363.645 139.296 366.376 140.32V174.88C361.597 174.368 355.027 174.112 346.664 174.112C338.643 174.112 331.901 175.221 326.44 177.44C321.149 179.488 316.456 183.413 312.36 189.216V276H276.52ZM379.43 241.44V228.64C379.43 223.349 380.113 218.571 381.478 214.304C383.014 210.037 385.318 206.112 388.39 202.528C391.462 198.944 395.558 196.213 400.678 194.336C405.969 192.288 412.198 191.264 419.366 191.264C426.022 191.264 432.593 191.349 439.078 191.52C445.734 191.52 452.475 191.435 459.302 191.264C459.473 185.632 459.473 182.731 459.302 182.56C459.302 178.976 458.875 176.075 458.022 173.856C457.339 171.637 456.145 169.931 454.438 168.736C452.731 167.541 450.854 166.773 448.806 166.432C446.758 166.091 444.198 165.92 441.126 165.92C430.033 165.92 411.003 166.859 384.038 168.736V146.72C399.227 140.747 419.878 137.675 445.99 137.504C461.691 137.504 473.809 140.832 482.342 147.488C490.875 153.973 495.142 165.237 495.142 181.28V276H466.726L459.302 261.152C458.619 262.347 456.401 264.224 452.646 266.784C449.062 269.173 443.942 271.648 437.286 274.208C430.63 276.597 424.145 277.707 417.83 277.536C405.542 277.195 396.07 273.525 389.414 266.528C382.758 259.36 379.43 250.997 379.43 241.44ZM415.27 236.32C415.27 241.44 416.379 244.853 418.598 246.56C420.817 248.096 423.974 248.864 428.07 248.864C430.118 248.864 432.251 248.693 434.47 248.352C436.689 247.84 438.737 247.328 440.614 246.816C442.662 246.133 444.625 245.451 446.502 244.768C448.379 243.915 450.086 243.147 451.622 242.464C453.158 241.611 454.438 240.928 455.462 240.416C456.657 239.733 457.595 239.221 458.278 238.88C458.961 238.368 459.302 238.112 459.302 238.112V213.28L426.278 215.84C424.059 216.011 422.182 216.608 420.646 217.632C419.11 218.485 417.915 219.595 417.062 220.96C416.379 222.325 415.867 223.691 415.526 225.056C415.355 226.421 415.27 227.957 415.27 229.664V236.32ZM508.34 140.064H546.74L576.436 234.016L606.9 140.064H645.3L595.892 276H555.7L508.34 140.064ZM658.472 207.392C658.472 195.616 659.155 185.803 660.52 177.952C662.056 169.931 664.189 163.36 666.92 158.24C669.651 152.949 673.491 148.939 678.44 146.208C683.389 143.477 688.851 141.6 694.824 140.576C700.968 139.552 708.648 139.04 717.864 139.04C724.008 139.04 729.213 139.211 733.48 139.552C737.747 139.723 742.013 140.235 746.28 141.088C750.717 141.771 754.301 142.88 757.032 144.416C759.763 145.781 762.408 147.744 764.968 150.304C767.528 152.693 769.491 155.68 770.856 159.264C772.392 162.677 773.501 166.859 774.184 171.808C775.037 176.587 775.464 182.133 775.464 188.448C775.464 200.395 772.307 209.099 765.992 214.56C759.677 220.021 750.205 222.752 737.576 222.752H694.312C694.312 230.603 695.421 236.491 697.64 240.416C700.029 244.171 702.931 246.475 706.344 247.328C709.928 248.181 715.475 248.608 722.984 248.608C743.976 248.608 760.616 247.669 772.904 245.792V270.112C760.104 274.891 736.893 277.28 703.272 277.28C694.568 277.28 687.315 276 681.512 273.44C675.88 270.88 671.357 266.699 667.944 260.896C664.531 255.093 662.056 247.925 660.52 239.392C659.155 230.859 658.472 220.192 658.472 207.392ZM694.312 196.896H728.36C735.869 196.896 739.624 193.483 739.624 186.656C739.624 178.123 738.429 172.661 736.04 170.272C733.821 167.712 728.445 166.432 719.912 166.432C714.451 166.432 710.355 166.688 707.624 167.2C705.064 167.541 702.504 168.736 699.944 170.784C697.555 172.661 695.933 175.648 695.08 179.744C694.397 183.84 694.141 189.557 694.312 196.896ZM795.02 227.616V75.552H830.86V221.984C830.86 231.029 831.799 237.344 833.676 240.928C835.553 244.512 838.54 247.072 842.636 248.608C852.876 252.192 858.593 253.984 859.788 253.984V276H830.092C824.46 276 819.511 275.147 815.244 273.44C810.977 271.733 807.308 269.088 804.236 265.504C801.164 261.749 798.86 256.715 797.324 250.4C795.788 244.085 795.02 236.491 795.02 227.616ZM880.134 270.112V247.072C880.134 242.805 882.182 240.672 886.278 240.672H908.294C912.561 240.672 914.694 242.805 914.694 247.072V270.112C914.694 274.037 912.561 276 908.294 276H886.278C884.401 276 882.865 275.488 881.67 274.464C880.646 273.269 880.134 271.819 880.134 270.112Z" fill="white"/>
</svg>
