<svg width="2360" height="345" viewBox="0 0 2360 345" fill="none" xmlns="http://www.w3.org/2000/svg">
<rect x="1752" y="5" width="608" height="324" rx="10" fill="#181818"/>
<path d="M1828.38 271.112V248.072C1828.38 243.805 1830.43 241.672 1834.53 241.672H1856.54C1860.81 241.672 1862.94 243.805 1862.94 248.072V271.112C1862.94 275.037 1860.81 277 1856.54 277H1834.53C1832.65 277 1831.11 276.488 1829.92 275.464C1828.9 274.269 1828.38 272.819 1828.38 271.112ZM1884.88 171.272V141.064H1994.71V171.272L1936.34 246.536H1994.71V276.744H1888.72V246.792L1949.65 171.272H1884.88ZM2008.18 188.168V176.392C2008.18 151.987 2019.96 139.784 2043.51 139.784C2083.96 139.784 2108.19 142.088 2116.21 146.696V169.224H2054.52C2052.3 169.224 2050.42 169.395 2048.88 169.736C2047.52 170.077 2046.49 170.675 2045.81 171.528C2045.13 172.381 2044.62 173.32 2044.28 174.344C2044.11 175.368 2044.02 176.819 2044.02 178.696V184.84C2044.02 188.765 2044.87 191.24 2046.58 192.264C2048.29 193.117 2050.93 193.544 2054.52 193.544H2086.77C2093.09 193.544 2098.55 194.483 2103.16 196.36C2107.93 198.067 2111.69 200.541 2114.42 203.784C2117.32 207.027 2119.45 210.781 2120.82 215.048C2122.19 219.144 2122.87 223.667 2122.87 228.616V242.696C2122.87 263.176 2114.25 274.867 2097.01 277.768C2094.62 278.109 2092.15 278.28 2089.59 278.28C2046.58 278.28 2021.32 275.805 2013.81 270.856V248.584H2078.07C2084.04 248.584 2087.03 245.683 2087.03 239.88V233.48C2087.03 231.432 2086.77 229.811 2086.26 228.616C2085.92 227.421 2085.07 226.483 2083.7 225.8C2082.33 225.117 2080.46 224.776 2078.07 224.776H2046.32C2033.87 224.776 2024.39 221.875 2017.91 216.072C2011.42 210.269 2008.18 200.968 2008.18 188.168ZM2142.02 277V76.552H2177.6V155.656C2180.16 153.779 2181.79 152.584 2182.47 152.072C2183.32 151.56 2184.94 150.451 2187.33 148.744C2189.89 147.037 2191.77 145.928 2192.96 145.416C2194.16 144.904 2196.04 144.136 2198.6 143.112C2201.16 141.917 2203.37 141.149 2205.25 140.808C2207.3 140.296 2209.69 139.869 2212.42 139.528C2215.15 139.016 2217.97 138.76 2220.87 138.76C2248 138.76 2261.57 154.632 2261.57 186.376V277H2225.73V185.864C2225.73 179.379 2224.37 174.685 2221.64 171.784C2219.08 168.883 2215.41 167.432 2210.63 167.432C2205.85 167.432 2201.58 167.944 2197.83 168.968C2194.24 169.821 2190.92 171.101 2187.84 172.808C2184.94 174.344 2181.61 176.477 2177.86 179.208V277H2142.02Z" fill="white"/>
<path d="M1025.36 344.12V139.064H1038.93L1043.79 154.168C1048.06 151.096 1055.57 147.597 1066.32 143.672C1077.07 139.576 1086.37 137.528 1094.22 137.528C1103.1 137.528 1110.61 139.576 1116.75 143.672C1122.9 147.768 1127.5 153.4 1130.58 160.568C1133.65 167.565 1135.78 174.819 1136.98 182.328C1138.34 189.667 1139.02 197.688 1139.02 206.392C1139.02 216.291 1138.43 224.995 1137.23 232.504C1136.21 239.843 1134.16 247.181 1131.09 254.52C1128.19 261.688 1123.58 267.235 1117.26 271.16C1111.12 275.085 1103.44 277.048 1094.22 277.048C1087.91 277.048 1079.8 276.109 1069.9 274.232C1060.18 272.355 1051.47 269.88 1043.79 266.808V344.12H1025.36ZM1043.79 251.448C1060.86 255.885 1077.67 258.104 1094.22 258.104C1103.1 258.104 1109.58 254.435 1113.68 247.096C1117.95 239.757 1120.08 226.189 1120.08 206.392C1120.08 173.112 1111.46 156.472 1094.22 156.472C1079.89 156.472 1063.08 160.397 1043.79 168.248V251.448ZM1167.11 226.616V74.552H1186.05V226.616C1186.05 237.027 1187.25 244.28 1189.64 248.376C1192.03 252.301 1195.7 254.861 1200.65 256.056C1214.64 259.64 1222.24 261.432 1223.43 261.432V275H1200.9C1178.37 275 1167.11 258.872 1167.11 226.616ZM1241.3 233.784V139.064H1260.24V233.784C1260.24 241.805 1262.38 247.949 1266.64 252.216C1270.91 256.312 1276.46 258.36 1283.28 258.36C1289.77 258.36 1295.91 257.677 1301.72 256.312C1307.52 254.947 1312.13 253.581 1315.54 252.216C1319.12 250.68 1325.1 247.864 1333.46 243.768V139.064H1352.4V275H1339.09L1333.46 259.128C1332.95 259.299 1331.07 260.408 1327.83 262.456C1324.59 264.333 1322.54 265.443 1321.68 265.784C1321 266.125 1319.21 267.149 1316.31 268.856C1313.41 270.392 1311.36 271.331 1310.16 271.672C1308.97 272.013 1307.01 272.696 1304.28 273.72C1301.55 274.744 1299.24 275.427 1297.36 275.768C1295.66 276.109 1293.52 276.451 1290.96 276.792C1288.4 277.133 1285.84 277.304 1283.28 277.304C1270.31 277.304 1260.07 273.037 1252.56 264.504C1245.05 255.971 1241.3 245.731 1241.3 233.784ZM1380.04 245.56C1380.04 240.781 1381.32 236.344 1383.88 232.248C1386.44 227.981 1390.19 225.336 1395.14 224.312C1385.24 217.997 1380.29 205.539 1380.29 186.936C1380.29 171.064 1384.13 159.032 1391.81 150.84C1399.66 142.648 1410.59 138.552 1424.58 138.552H1504.45V152.888L1483.72 157.496C1483.89 157.837 1484.49 158.947 1485.51 160.824C1486.53 162.531 1487.3 163.981 1487.81 165.176C1488.33 166.2 1488.92 167.821 1489.61 170.04C1490.29 172.088 1490.8 174.563 1491.14 177.464C1491.48 180.195 1491.65 183.352 1491.65 186.936C1491.65 191.715 1491.06 196.579 1489.86 201.528C1488.84 206.477 1486.96 211.853 1484.23 217.656C1481.5 223.288 1477.15 227.896 1471.17 231.48C1465.2 235.064 1457.95 236.856 1449.41 236.856H1409.48C1402.48 236.856 1398.98 239.416 1398.98 244.536C1398.98 250.339 1402.48 253.24 1409.48 253.24H1464.01C1474.42 253.24 1482.52 256.483 1488.33 262.968C1494.13 269.283 1497.03 277.816 1497.03 288.568V304.696C1497.03 309.304 1496.52 313.571 1495.49 317.496C1494.64 321.421 1492.93 325.517 1490.37 329.784C1487.98 334.221 1484.06 337.72 1478.6 340.28C1473.14 342.84 1466.48 344.12 1458.63 344.12H1420.23C1407.77 344.12 1397.79 340.792 1390.28 334.136C1382.94 327.48 1379.27 317.667 1379.27 304.696V282.936L1389.51 266.296C1383.2 261.859 1380.04 254.947 1380.04 245.56ZM1398.21 304.696C1398.21 318.349 1405.55 325.176 1420.23 325.176H1458.63C1471.6 325.176 1478.09 318.349 1478.09 304.696V289.848C1478.09 283.363 1476.89 278.755 1474.5 276.024C1472.28 273.464 1467.68 272.184 1460.68 272.184H1409.73C1407.34 272.184 1405.21 272.013 1403.33 271.672C1401.46 271.331 1400.18 270.989 1399.49 270.648L1398.21 270.136V304.696ZM1399.24 186.936C1399.24 190.52 1399.58 193.933 1400.26 197.176C1400.94 200.419 1402.05 203.747 1403.59 207.16C1405.13 210.403 1407.52 213.048 1410.76 215.096C1414.17 216.973 1418.18 217.912 1422.79 217.912H1447.88C1452.49 217.912 1456.5 216.973 1459.91 215.096C1463.32 213.219 1465.88 210.744 1467.59 207.672C1469.47 204.6 1470.75 201.528 1471.43 198.456C1472.28 195.213 1472.71 191.971 1472.71 188.728C1472.71 188.045 1472.71 187.448 1472.71 186.936C1472.2 177.037 1470.24 169.699 1466.82 164.92C1463.41 159.971 1457.01 157.496 1447.62 157.496H1424.58C1407.69 157.496 1399.24 167.309 1399.24 186.936ZM1522.3 117.048V103.224C1522.3 98.9573 1524.35 96.824 1528.44 96.824H1541.24C1545.17 96.824 1547.13 98.9573 1547.13 103.224V117.048C1547.13 120.973 1545.17 122.936 1541.24 122.936H1528.44C1524.35 122.936 1522.3 120.973 1522.3 117.048ZM1524.86 275V139.064H1543.8V275H1524.86ZM1575.36 275V139.064H1588.67L1594.3 154.936C1594.82 154.765 1596.69 153.741 1599.94 151.864C1603.18 149.816 1605.14 148.621 1605.82 148.28C1606.68 147.939 1608.55 147 1611.46 145.464C1614.36 143.757 1616.41 142.733 1617.6 142.392C1618.79 142.051 1620.76 141.368 1623.49 140.344C1626.22 139.32 1628.44 138.637 1630.14 138.296C1632.02 137.955 1634.24 137.613 1636.8 137.272C1639.36 136.931 1641.92 136.76 1644.48 136.76C1657.45 136.76 1667.69 141.027 1675.2 149.56C1682.71 158.093 1686.46 168.333 1686.46 180.28V275H1667.52V180.28C1667.52 172.259 1665.39 166.2 1661.12 162.104C1656.85 157.837 1651.31 155.704 1644.48 155.704C1637.99 155.704 1631.85 156.387 1626.05 157.752C1620.25 159.117 1615.55 160.568 1611.97 162.104C1608.55 163.469 1602.67 166.2 1594.3 170.296V275H1575.36Z" fill="white"/>
<rect y="5" width="961" height="324" rx="10" fill="#181818"/>
<path d="M63.52 228.616V76.552H99.36V222.984C99.36 232.029 100.299 238.344 102.176 241.928C104.053 245.512 107.04 248.072 111.136 249.608C121.376 253.192 127.093 254.984 128.288 254.984V277H98.592C92.96 277 88.0107 276.147 83.744 274.44C79.4773 272.733 75.808 270.088 72.736 266.504C69.664 262.749 67.36 257.715 65.824 251.4C64.288 245.085 63.52 237.491 63.52 228.616ZM139.93 242.44V229.64C139.93 224.349 140.613 219.571 141.978 215.304C143.514 211.037 145.818 207.112 148.89 203.528C151.962 199.944 156.058 197.213 161.178 195.336C166.469 193.288 172.698 192.264 179.866 192.264C186.522 192.264 193.093 192.349 199.578 192.52C206.234 192.52 212.975 192.435 219.802 192.264C219.973 186.632 219.973 183.731 219.802 183.56C219.802 179.976 219.375 177.075 218.522 174.856C217.839 172.637 216.645 170.931 214.938 169.736C213.231 168.541 211.354 167.773 209.306 167.432C207.258 167.091 204.698 166.92 201.626 166.92C190.533 166.92 171.503 167.859 144.538 169.736V147.72C159.727 141.747 180.378 138.675 206.49 138.504C222.191 138.504 234.309 141.832 242.842 148.488C251.375 154.973 255.642 166.237 255.642 182.28V277H227.226L219.802 262.152C219.119 263.347 216.901 265.224 213.146 267.784C209.562 270.173 204.442 272.648 197.786 275.208C191.13 277.597 184.645 278.707 178.33 278.536C166.042 278.195 156.57 274.525 149.914 267.528C143.258 260.36 139.93 251.997 139.93 242.44ZM175.77 237.32C175.77 242.44 176.879 245.853 179.098 247.56C181.317 249.096 184.474 249.864 188.57 249.864C190.618 249.864 192.751 249.693 194.97 249.352C197.189 248.84 199.237 248.328 201.114 247.816C203.162 247.133 205.125 246.451 207.002 245.768C208.879 244.915 210.586 244.147 212.122 243.464C213.658 242.611 214.938 241.928 215.962 241.416C217.157 240.733 218.095 240.221 218.778 239.88C219.461 239.368 219.802 239.112 219.802 239.112V214.28L186.778 216.84C184.559 217.011 182.682 217.608 181.146 218.632C179.61 219.485 178.415 220.595 177.562 221.96C176.879 223.325 176.367 224.691 176.026 226.056C175.855 227.421 175.77 228.957 175.77 230.664V237.32ZM276.52 277V141.064H306.728L312.36 158.216C325.16 145.928 338.131 139.784 351.272 139.784C358.611 139.784 363.645 140.296 366.376 141.32V175.88C361.597 175.368 355.027 175.112 346.664 175.112C338.643 175.112 331.901 176.221 326.44 178.44C321.149 180.488 316.456 184.413 312.36 190.216V277H276.52ZM379.43 242.44V229.64C379.43 224.349 380.113 219.571 381.478 215.304C383.014 211.037 385.318 207.112 388.39 203.528C391.462 199.944 395.558 197.213 400.678 195.336C405.969 193.288 412.198 192.264 419.366 192.264C426.022 192.264 432.593 192.349 439.078 192.52C445.734 192.52 452.475 192.435 459.302 192.264C459.473 186.632 459.473 183.731 459.302 183.56C459.302 179.976 458.875 177.075 458.022 174.856C457.339 172.637 456.145 170.931 454.438 169.736C452.731 168.541 450.854 167.773 448.806 167.432C446.758 167.091 444.198 166.92 441.126 166.92C430.033 166.92 411.003 167.859 384.038 169.736V147.72C399.227 141.747 419.878 138.675 445.99 138.504C461.691 138.504 473.809 141.832 482.342 148.488C490.875 154.973 495.142 166.237 495.142 182.28V277H466.726L459.302 262.152C458.619 263.347 456.401 265.224 452.646 267.784C449.062 270.173 443.942 272.648 437.286 275.208C430.63 277.597 424.145 278.707 417.83 278.536C405.542 278.195 396.07 274.525 389.414 267.528C382.758 260.36 379.43 251.997 379.43 242.44ZM415.27 237.32C415.27 242.44 416.379 245.853 418.598 247.56C420.817 249.096 423.974 249.864 428.07 249.864C430.118 249.864 432.251 249.693 434.47 249.352C436.689 248.84 438.737 248.328 440.614 247.816C442.662 247.133 444.625 246.451 446.502 245.768C448.379 244.915 450.086 244.147 451.622 243.464C453.158 242.611 454.438 241.928 455.462 241.416C456.657 240.733 457.595 240.221 458.278 239.88C458.961 239.368 459.302 239.112 459.302 239.112V214.28L426.278 216.84C424.059 217.011 422.182 217.608 420.646 218.632C419.11 219.485 417.915 220.595 417.062 221.96C416.379 223.325 415.867 224.691 415.526 226.056C415.355 227.421 415.27 228.957 415.27 230.664V237.32ZM508.34 141.064H546.74L576.436 235.016L606.9 141.064H645.3L595.892 277H555.7L508.34 141.064ZM658.472 208.392C658.472 196.616 659.155 186.803 660.52 178.952C662.056 170.931 664.189 164.36 666.92 159.24C669.651 153.949 673.491 149.939 678.44 147.208C683.389 144.477 688.851 142.6 694.824 141.576C700.968 140.552 708.648 140.04 717.864 140.04C724.008 140.04 729.213 140.211 733.48 140.552C737.747 140.723 742.013 141.235 746.28 142.088C750.717 142.771 754.301 143.88 757.032 145.416C759.763 146.781 762.408 148.744 764.968 151.304C767.528 153.693 769.491 156.68 770.856 160.264C772.392 163.677 773.501 167.859 774.184 172.808C775.037 177.587 775.464 183.133 775.464 189.448C775.464 201.395 772.307 210.099 765.992 215.56C759.677 221.021 750.205 223.752 737.576 223.752H694.312C694.312 231.603 695.421 237.491 697.64 241.416C700.029 245.171 702.931 247.475 706.344 248.328C709.928 249.181 715.475 249.608 722.984 249.608C743.976 249.608 760.616 248.669 772.904 246.792V271.112C760.104 275.891 736.893 278.28 703.272 278.28C694.568 278.28 687.315 277 681.512 274.44C675.88 271.88 671.357 267.699 667.944 261.896C664.531 256.093 662.056 248.925 660.52 240.392C659.155 231.859 658.472 221.192 658.472 208.392ZM694.312 197.896H728.36C735.869 197.896 739.624 194.483 739.624 187.656C739.624 179.123 738.429 173.661 736.04 171.272C733.821 168.712 728.445 167.432 719.912 167.432C714.451 167.432 710.355 167.688 707.624 168.2C705.064 168.541 702.504 169.736 699.944 171.784C697.555 173.661 695.933 176.648 695.08 180.744C694.397 184.84 694.141 190.557 694.312 197.896ZM795.02 228.616V76.552H830.86V222.984C830.86 232.029 831.799 238.344 833.676 241.928C835.553 245.512 838.54 248.072 842.636 249.608C852.876 253.192 858.593 254.984 859.788 254.984V277H830.092C824.46 277 819.511 276.147 815.244 274.44C810.977 272.733 807.308 270.088 804.236 266.504C801.164 262.749 798.86 257.715 797.324 251.4C795.788 245.085 795.02 237.491 795.02 228.616ZM880.134 271.112V248.072C880.134 243.805 882.182 241.672 886.278 241.672H908.294C912.561 241.672 914.694 243.805 914.694 248.072V271.112C914.694 275.037 912.561 277 908.294 277H886.278C884.401 277 882.865 276.488 881.67 275.464C880.646 274.269 880.134 272.819 880.134 271.112Z" fill="white"/>
</svg>
